<svg width="24" height="25" viewBox="0 0 24 25" fill="none" xmlns="http://www.w3.org/2000/svg">
<path fill-rule="evenodd" clip-rule="evenodd" d="M13.6552 1.89663L7.32785 0.799562C4.93694 0.385016 2.66266 1.98719 2.24811 4.3781L0.0653091 16.9675C-0.349237 19.3585 1.25293 21.6327 3.64385 22.0473L7.48743 22.7137L12.3508 18.6091L3.76075 11.6139C3.56755 11.4566 3.45428 11.2215 3.45161 10.9724C3.44894 10.7233 3.55716 10.4858 3.74694 10.3244L13.6552 1.89663ZM9.64549 23.0879L16.0477 24.1979C18.4386 24.6125 20.7129 23.0103 21.1274 20.6194L23.3102 8.02993C23.7248 5.63901 22.1226 3.36474 19.7317 2.95019L15.8064 2.2696L10.7919 6.53475L19.2835 13.6689C19.473 13.8281 19.5825 14.0629 19.5828 14.3103C19.5831 14.5578 19.4741 14.7928 19.285 14.9524L9.64549 23.0879ZM17.4415 14.3127L13.6556 17.5079L5.6018 10.9494L9.49582 7.63721L17.4415 14.3127Z" fill="url(#paint0_linear_45_1964)"/>
<defs>
<linearGradient id="paint0_linear_45_1964" x1="5.20128" y1="3.251" x2="22.1203" y2="29.839" gradientUnits="userSpaceOnUse">
<stop stop-color="#B336FF"/>
<stop offset="1" stop-color="#58159B"/>
</linearGradient>
</defs>
</svg>
