<svg width="131" height="48" viewBox="0 0 131 48" fill="none" xmlns="http://www.w3.org/2000/svg">
<mask id="mask0_628_515" style="mask-type:luminance" maskUnits="userSpaceOnUse" x="11" y="23" width="27" height="25">
<path d="M11.2344 39.2146V48L37.8161 32.7841V23.9987L11.2344 39.2146Z" fill="white"/>
</mask>
<g mask="url(#mask0_628_515)">
<path d="M17.8802 12.5882L0.752441 41.9998L31.1712 59.4114L48.2989 29.9998L17.8802 12.5882Z" fill="url(#paint0_linear_628_515)"/>
</g>
<mask id="mask1_628_515" style="mask-type:luminance" maskUnits="userSpaceOnUse" x="11" y="8" width="27" height="25">
<path d="M11.2344 17.5682L37.8161 32.7841V23.9987L11.2344 8.78543V17.5682Z" fill="white"/>
</mask>
<g mask="url(#mask1_628_515)">
<path d="M31.1716 -2.62675L0.75293 14.7848L17.8807 44.1964L48.2994 26.7848L31.1716 -2.62675Z" fill="url(#paint1_linear_628_515)"/>
</g>
<mask id="mask2_628_515" style="mask-type:luminance" maskUnits="userSpaceOnUse" x="0" y="15" width="27" height="25">
<path d="M0 23.9987L26.5817 39.2146V30.4318L0 15.2159V23.9987Z" fill="white"/>
</mask>
<g mask="url(#mask2_628_515)">
<path d="M19.9373 3.80375L-10.4814 21.2153L6.64629 50.6269L37.065 33.2153L19.9373 3.80375Z" fill="url(#paint2_linear_628_515)"/>
</g>
<path d="M26.5817 8.78542L0 23.9987V15.2159L26.5817 0V8.78542Z" fill="#FF00D2"/>
<path d="M110.706 9.05695C109.761 9.05695 108.947 8.71755 108.262 8.03873C107.578 7.35992 107.235 6.55317 107.235 5.61589C107.235 4.6786 107.572 3.87969 108.249 3.21654C108.926 2.55339 109.745 2.22182 110.706 2.22182C111.667 2.22182 112.523 2.55078 113.184 3.2061C113.845 3.86141 114.177 4.66555 114.177 5.61589C114.177 6.56623 113.843 7.3808 113.174 8.05178C112.505 8.72277 111.683 9.05695 110.706 9.05695ZM107.754 12.0542H113.658V35.9772H107.754V12.0542Z" fill="#0A0A32"/>
<path d="M126.786 12.0542V2.22182H120.932V12.0542H117.414V17.1818H120.932V35.9772H126.786V17.1818H130.286V12.0542H126.786Z" fill="#0A0A32"/>
<path d="M65.8831 25.9829C65.3406 25.0143 64.49 24.1658 63.3339 23.4321C62.1778 22.6985 60.6689 22.0432 58.8123 21.4662C56.94 20.8579 55.6601 20.3279 54.9754 19.8736C54.2908 19.4219 53.9484 18.905 53.9484 18.328C53.9484 17.751 54.2407 17.2628 54.8227 16.9103C55.4047 16.5605 56.1763 16.3829 57.1375 16.3829C59.0256 16.3829 60.6794 17.0931 62.0962 18.5133L65.9436 15.3542C64.8745 14.0906 63.5946 13.1298 62.1067 12.4745C60.6188 11.8192 58.994 11.4902 57.2296 11.4902C54.6489 11.4902 52.5553 12.1038 50.9489 13.3283C49.3426 14.5527 48.5394 16.1479 48.5394 18.1165C48.5394 19.8814 49.1056 21.3356 50.2406 22.4818C51.3729 23.6279 53.2953 24.6932 56.0025 25.6774C57.4035 26.1761 58.4884 26.6173 59.26 27.0011C60.0316 27.3849 60.5715 27.7583 60.8769 28.1238C61.185 28.4919 61.3378 28.907 61.3378 29.377C61.3378 30.095 61.0165 30.6537 60.3687 31.0505C59.7235 31.4474 58.8018 31.6484 57.6062 31.6484C56.645 31.6484 55.6391 31.403 54.5831 30.9121C53.8088 30.5519 53.1031 30.095 52.4658 29.5441L47.9258 32.1418C48.9344 33.4838 50.2985 34.5516 52.0208 35.3479C53.743 36.1442 55.5495 36.5411 57.4403 36.5411C60.3213 36.5411 62.5834 35.9014 64.2293 34.6221C65.8752 33.3428 66.6968 31.5779 66.6968 29.3326C66.6968 28.069 66.4255 26.9541 65.8831 25.9855" fill="#0A0A32"/>
<path d="M95.6194 35.9772H101.524V2.22182L95.6194 5.60022V35.9772Z" fill="#0A0A32"/>
<path d="M90.4501 17.3202C89.6469 15.4482 88.4987 14.0071 87.003 13.0019C85.5072 11.9941 83.7296 11.4929 81.6677 11.4929C79.4477 11.4929 77.678 12.2657 76.3561 13.8113V12.0568H70.4546V45.8121L76.3561 42.4337V34.1783C76.9854 34.9589 77.7412 35.549 78.6234 35.9458C79.5056 36.3427 80.4958 36.5437 81.5992 36.5437C83.6138 36.5437 85.3781 36.0242 86.8871 34.9877C88.3987 33.9512 89.5706 32.4917 90.4054 30.6093C91.2401 28.7295 91.6562 26.5338 91.6562 24.0196C91.6562 21.5054 91.2559 19.1974 90.4527 17.3254M84.4328 29.1342C83.5664 30.343 82.3313 30.9487 80.7249 30.9487C79.7953 30.9487 78.9421 30.7607 78.1626 30.3874C77.3831 30.014 76.78 29.4893 76.3561 28.8183V19.1504C76.8748 18.4481 77.4937 17.9259 78.21 17.5813C78.9263 17.2367 79.7637 17.067 80.7249 17.067C82.2997 17.067 83.5269 17.6753 84.4091 18.8919C85.2913 20.1086 85.731 21.8187 85.731 24.0196C85.731 26.2205 85.2991 27.9254 84.4328 29.1342Z" fill="#0A0A32"/>
<defs>
<linearGradient id="paint0_linear_628_515" x1="16.1803" y1="50.8156" x2="33.0876" y2="21.2779" gradientUnits="userSpaceOnUse">
<stop stop-color="#0075FF"/>
<stop offset="0.5" stop-color="#0075FF"/>
<stop offset="1" stop-color="#0A0A32"/>
</linearGradient>
<linearGradient id="paint1_linear_628_515" x1="33.2954" y1="35.358" x2="16.388" y2="5.82027" gradientUnits="userSpaceOnUse">
<stop stop-color="#00ADF2"/>
<stop offset="0.5" stop-color="#00ADF2"/>
<stop offset="1" stop-color="#0A0A32"/>
</linearGradient>
<linearGradient id="paint2_linear_628_515" x1="22.0685" y1="41.7963" x2="5.1612" y2="12.2585" gradientUnits="userSpaceOnUse">
<stop stop-color="#8100FF"/>
<stop offset="0.5" stop-color="#8100FF"/>
<stop offset="1" stop-color="#0A0A32"/>
</linearGradient>
</defs>
</svg>
